<svg xmlns="http://www.w3.org/2000/svg" xmlns:xlink="http://www.w3.org/1999/xlink" width="500" zoomAndPan="magnify" viewBox="0 0 375 144.749998" height="193" preserveAspectRatio="xMidYMid meet" version="1.0"><defs><g></g><clipPath id="139c2a0e23"><path d="M 29.144531 28.820312 L 115.765625 28.820312 L 115.765625 115.441406 L 29.144531 115.441406 Z M 29.144531 28.820312 " clip-rule="nonzero"></path></clipPath><clipPath id="c2f87bd2ef"><path d="M 36.632812 28.820312 L 108.277344 28.820312 C 112.414062 28.820312 115.765625 32.171875 115.765625 36.308594 L 115.765625 107.953125 C 115.765625 112.089844 112.414062 115.441406 108.277344 115.441406 L 36.632812 115.441406 C 32.496094 115.441406 29.144531 112.089844 29.144531 107.953125 L 29.144531 36.308594 C 29.144531 32.171875 32.496094 28.820312 36.632812 28.820312 Z M 36.632812 28.820312 " clip-rule="nonzero"></path></clipPath><clipPath id="50b9f68dda"><path d="M 0.144531 0.820312 L 86.765625 0.820312 L 86.765625 87.441406 L 0.144531 87.441406 Z M 0.144531 0.820312 " clip-rule="nonzero"></path></clipPath><clipPath id="1230c25ba9"><path d="M 7.632812 0.820312 L 79.277344 0.820312 C 83.414062 0.820312 86.765625 4.171875 86.765625 8.308594 L 86.765625 79.953125 C 86.765625 84.089844 83.414062 87.441406 79.277344 87.441406 L 7.632812 87.441406 C 3.496094 87.441406 0.144531 84.089844 0.144531 79.953125 L 0.144531 8.308594 C 0.144531 4.171875 3.496094 0.820312 7.632812 0.820312 Z M 7.632812 0.820312 " clip-rule="nonzero"></path></clipPath><clipPath id="20bad28037"><rect x="0" width="87" y="0" height="88"></rect></clipPath><clipPath id="b354cff9e8"><path d="M 29.144531 28.820312 L 115.792969 28.820312 L 115.792969 115.472656 L 29.144531 115.472656 Z M 29.144531 28.820312 " clip-rule="nonzero"></path></clipPath><clipPath id="ac4c8530a3"><path d="M 36.628906 28.820312 L 108.273438 28.820312 C 112.40625 28.820312 115.761719 32.171875 115.761719 36.308594 L 115.761719 107.949219 C 115.761719 112.085938 112.40625 115.4375 108.273438 115.4375 L 36.628906 115.4375 C 32.496094 115.4375 29.144531 112.085938 29.144531 107.949219 L 29.144531 36.308594 C 29.144531 32.171875 32.496094 28.820312 36.628906 28.820312 Z M 36.628906 28.820312 " clip-rule="nonzero"></path></clipPath><clipPath id="64f8fd26b6"><rect x="0" width="56" y="0" height="59"></rect></clipPath><clipPath id="b3eeb55255"><path d="M 99.148438 64 L 108.683594 64 L 108.683594 73.425781 L 99.148438 73.425781 Z M 99.148438 64 " clip-rule="nonzero"></path></clipPath><clipPath id="b96c550af4"><path d="M 100.644531 64 L 107.152344 64 C 107.980469 64 108.648438 64.671875 108.648438 65.496094 L 108.648438 71.925781 C 108.648438 72.753906 107.980469 73.425781 107.152344 73.425781 L 100.644531 73.425781 C 99.820312 73.425781 99.148438 72.753906 99.148438 71.925781 L 99.148438 65.496094 C 99.148438 64.671875 99.820312 64 100.644531 64 Z M 100.644531 64 " clip-rule="nonzero"></path></clipPath><clipPath id="41aba9161b"><path d="M 0.148438 0 L 9.683594 0 L 9.683594 9.425781 L 0.148438 9.425781 Z M 0.148438 0 " clip-rule="nonzero"></path></clipPath><clipPath id="7aed8f1ae0"><path d="M 1.644531 0 L 8.152344 0 C 8.980469 0 9.648438 0.671875 9.648438 1.496094 L 9.648438 7.925781 C 9.648438 8.753906 8.980469 9.425781 8.152344 9.425781 L 1.644531 9.425781 C 0.820312 9.425781 0.148438 8.753906 0.148438 7.925781 L 0.148438 1.496094 C 0.148438 0.671875 0.820312 0 1.644531 0 Z M 1.644531 0 " clip-rule="nonzero"></path></clipPath><clipPath id="fdbfb712e9"><rect x="0" width="10" y="0" height="10"></rect></clipPath><clipPath id="1e9f83211f"><path d="M 99.148438 64 L 108.882812 64 L 108.882812 73.46875 L 99.148438 73.46875 Z M 99.148438 64 " clip-rule="nonzero"></path></clipPath><clipPath id="2d7ea384e0"><path d="M 100.648438 64 L 107.148438 64 C 107.976562 64 108.644531 64.671875 108.644531 65.496094 L 108.644531 71.921875 C 108.644531 72.746094 107.976562 73.417969 107.148438 73.417969 L 100.648438 73.417969 C 99.820312 73.417969 99.148438 72.746094 99.148438 71.921875 L 99.148438 65.496094 C 99.148438 64.671875 99.820312 64 100.648438 64 Z M 100.648438 64 " clip-rule="nonzero"></path></clipPath><clipPath id="961e846760"><path d="M 99.148438 52.636719 L 108.683594 52.636719 L 108.683594 62.058594 L 99.148438 62.058594 Z M 99.148438 52.636719 " clip-rule="nonzero"></path></clipPath><clipPath id="d0dc4e1e31"><path d="M 100.644531 52.636719 L 107.152344 52.636719 C 107.980469 52.636719 108.648438 53.308594 108.648438 54.132812 L 108.648438 60.5625 C 108.648438 61.390625 107.980469 62.058594 107.152344 62.058594 L 100.644531 62.058594 C 99.820312 62.058594 99.148438 61.390625 99.148438 60.5625 L 99.148438 54.132812 C 99.148438 53.308594 99.820312 52.636719 100.644531 52.636719 Z M 100.644531 52.636719 " clip-rule="nonzero"></path></clipPath><clipPath id="482986d26d"><path d="M 0.148438 0.636719 L 9.683594 0.636719 L 9.683594 10.058594 L 0.148438 10.058594 Z M 0.148438 0.636719 " clip-rule="nonzero"></path></clipPath><clipPath id="09605a7d2d"><path d="M 1.644531 0.636719 L 8.152344 0.636719 C 8.980469 0.636719 9.648438 1.308594 9.648438 2.132812 L 9.648438 8.5625 C 9.648438 9.390625 8.980469 10.058594 8.152344 10.058594 L 1.644531 10.058594 C 0.820312 10.058594 0.148438 9.390625 0.148438 8.5625 L 0.148438 2.132812 C 0.148438 1.308594 0.820312 0.636719 1.644531 0.636719 Z M 1.644531 0.636719 " clip-rule="nonzero"></path></clipPath><clipPath id="a1b721e613"><rect x="0" width="10" y="0" height="11"></rect></clipPath><clipPath id="0251c7cd76"><path d="M 99.148438 52.636719 L 108.882812 52.636719 L 108.882812 62.105469 L 99.148438 62.105469 Z M 99.148438 52.636719 " clip-rule="nonzero"></path></clipPath><clipPath id="c0fa13fdef"><path d="M 100.648438 52.636719 L 107.148438 52.636719 C 107.976562 52.636719 108.644531 53.304688 108.644531 54.132812 L 108.644531 60.558594 C 108.644531 61.382812 107.976562 62.054688 107.148438 62.054688 L 100.648438 62.054688 C 99.820312 62.054688 99.148438 61.382812 99.148438 60.558594 L 99.148438 54.132812 C 99.148438 53.304688 99.820312 52.636719 100.648438 52.636719 Z M 100.648438 52.636719 " clip-rule="nonzero"></path></clipPath><clipPath id="e5c8e4f3b1"><path d="M 87.980469 52.636719 L 97.511719 52.636719 L 97.511719 62.058594 L 87.980469 62.058594 Z M 87.980469 52.636719 " clip-rule="nonzero"></path></clipPath><clipPath id="77d40ee825"><path d="M 89.476562 52.636719 L 95.984375 52.636719 C 96.808594 52.636719 97.480469 53.308594 97.480469 54.132812 L 97.480469 60.5625 C 97.480469 61.390625 96.808594 62.058594 95.984375 62.058594 L 89.476562 62.058594 C 88.648438 62.058594 87.980469 61.390625 87.980469 60.5625 L 87.980469 54.132812 C 87.980469 53.308594 88.648438 52.636719 89.476562 52.636719 Z M 89.476562 52.636719 " clip-rule="nonzero"></path></clipPath><clipPath id="3aa5fe315a"><path d="M 0.980469 0.636719 L 10.511719 0.636719 L 10.511719 10.058594 L 0.980469 10.058594 Z M 0.980469 0.636719 " clip-rule="nonzero"></path></clipPath><clipPath id="4af0395be9"><path d="M 2.476562 0.636719 L 8.984375 0.636719 C 9.808594 0.636719 10.480469 1.308594 10.480469 2.132812 L 10.480469 8.5625 C 10.480469 9.390625 9.808594 10.058594 8.984375 10.058594 L 2.476562 10.058594 C 1.648438 10.058594 0.980469 9.390625 0.980469 8.5625 L 0.980469 2.132812 C 0.980469 1.308594 1.648438 0.636719 2.476562 0.636719 Z M 2.476562 0.636719 " clip-rule="nonzero"></path></clipPath><clipPath id="93396b1baf"><rect x="0" width="11" y="0" height="11"></rect></clipPath><clipPath id="51f5d93866"><path d="M 87.980469 52.636719 L 97.710938 52.636719 L 97.710938 62.105469 L 87.980469 62.105469 Z M 87.980469 52.636719 " clip-rule="nonzero"></path></clipPath><clipPath id="66aea159e5"><path d="M 89.476562 52.636719 L 95.980469 52.636719 C 96.808594 52.636719 97.476562 53.304688 97.476562 54.132812 L 97.476562 60.558594 C 97.476562 61.382812 96.808594 62.054688 95.980469 62.054688 L 89.476562 62.054688 C 88.652344 62.054688 87.980469 61.382812 87.980469 60.558594 L 87.980469 54.132812 C 87.980469 53.304688 88.652344 52.636719 89.476562 52.636719 Z M 89.476562 52.636719 " clip-rule="nonzero"></path></clipPath></defs><g fill="#17171b" fill-opacity="1"><g transform="translate(124.552141, 87.077204)"><g><path d="M 24.625 0 C 26.757812 0 28.640625 -0.773438 30.265625 -2.328125 C 31.804688 -3.910156 32.59375 -5.800781 32.625 -8 L 32.625 -10.578125 C 32.625 -11.359375 32.34375 -12.03125 31.78125 -12.59375 C 31.21875 -13.15625 30.546875 -13.4375 29.765625 -13.4375 L 17.625 -13.4375 L 17.625 -9.4375 L 28.625 -9.4375 L 28.625 -8 C 28.625 -6.925781 28.226562 -5.984375 27.4375 -5.171875 C 26.625 -4.390625 25.6875 -4 24.625 -4 L 10.640625 -4 C 9.523438 -4 8.578125 -4.382812 7.796875 -5.15625 C 7.023438 -5.9375 6.640625 -6.882812 6.640625 -8 L 6.640625 -17.171875 C 6.640625 -18.273438 7.023438 -19.21875 7.796875 -20 C 8.578125 -20.789062 9.523438 -21.1875 10.640625 -21.1875 L 24.625 -21.1875 C 25.71875 -21.1875 26.65625 -20.789062 27.4375 -20 C 28.226562 -19.21875 28.625 -18.273438 28.625 -17.171875 L 32.625 -17.171875 C 32.625 -19.378906 31.84375 -21.257812 30.28125 -22.8125 C 28.71875 -24.375 26.832031 -25.15625 24.625 -25.15625 L 10.640625 -25.15625 C 8.421875 -25.15625 6.53125 -24.375 4.96875 -22.8125 C 3.40625 -21.257812 2.625 -19.378906 2.625 -17.171875 L 2.625 -8 C 2.625 -5.789062 3.40625 -3.90625 4.96875 -2.34375 C 6.53125 -0.78125 8.421875 0 10.640625 0 Z M 24.625 0 "></path></g></g></g><g fill="#17171b" fill-opacity="1"><g transform="translate(158.40413, 87.077204)"><g><path d="M 24.625 0 C 26.832031 0 28.71875 -0.78125 30.28125 -2.34375 C 31.84375 -3.90625 32.625 -5.789062 32.625 -8 L 32.625 -25.15625 L 28.625 -25.15625 L 28.625 -8 C 28.625 -6.882812 28.226562 -5.9375 27.4375 -5.15625 C 26.65625 -4.382812 25.71875 -4 24.625 -4 L 10.640625 -4 C 9.523438 -4 8.578125 -4.382812 7.796875 -5.15625 C 7.023438 -5.9375 6.640625 -6.882812 6.640625 -8 L 6.640625 -25.15625 L 2.625 -25.15625 L 2.625 -8 C 2.625 -5.789062 3.40625 -3.90625 4.96875 -2.34375 C 6.53125 -0.78125 8.421875 0 10.640625 0 Z M 24.625 0 "></path></g></g></g><g fill="#17171b" fill-opacity="1"><g transform="translate(192.256119, 87.077204)"><g><path d="M 36.6875 0 L 31.84375 0 L 28.15625 -5.453125 L 9.046875 -5.453125 L 5.359375 0 L 0.53125 0 L 17.546875 -25.15625 L 19.671875 -25.15625 Z M 25.46875 -9.453125 L 18.59375 -19.59375 L 11.734375 -9.453125 Z M 25.46875 -9.453125 "></path></g></g></g><g fill="#17171b" fill-opacity="1"><g transform="translate(228.073464, 87.077204)"><g><path d="M 33.5 0 L 29.5 0 L 29.5 -7.09375 C 29.5 -7.632812 29.300781 -8.101562 28.90625 -8.5 C 28.519531 -8.894531 28.050781 -9.09375 27.5 -9.09375 L 7.515625 -9.09375 L 7.515625 0 L 3.515625 0 L 3.515625 -25.15625 L 27.5 -25.15625 C 29.144531 -25.15625 30.554688 -24.570312 31.734375 -23.40625 C 32.910156 -22.238281 33.5 -20.828125 33.5 -19.171875 L 33.5 -15.09375 C 33.5 -13.550781 32.984375 -12.21875 31.953125 -11.09375 C 32.984375 -9.957031 33.5 -8.625 33.5 -7.09375 Z M 27.5 -13.09375 C 28.050781 -13.09375 28.519531 -13.285156 28.90625 -13.671875 C 29.300781 -14.066406 29.5 -14.539062 29.5 -15.09375 L 29.5 -19.171875 C 29.5 -19.722656 29.300781 -20.195312 28.90625 -20.59375 C 28.519531 -20.988281 28.050781 -21.1875 27.5 -21.1875 L 7.515625 -21.1875 L 7.515625 -13.09375 Z M 27.5 -13.09375 "></path></g></g></g><g fill="#17171b" fill-opacity="1"><g transform="translate(262.802843, 87.077204)"><g><path d="M 25.5 0 C 27.707031 0 29.59375 -0.78125 31.15625 -2.34375 C 32.71875 -3.90625 33.5 -5.789062 33.5 -8 L 33.5 -17.171875 C 33.5 -19.378906 32.71875 -21.257812 31.15625 -22.8125 C 29.59375 -24.375 27.707031 -25.15625 25.5 -25.15625 L 3.515625 -25.15625 L 3.515625 0 Z M 25.5 -4 L 7.515625 -4 L 7.515625 -21.1875 L 25.5 -21.1875 C 26.59375 -21.1875 27.53125 -20.789062 28.3125 -20 C 29.101562 -19.21875 29.5 -18.273438 29.5 -17.171875 L 29.5 -8 C 29.5 -6.882812 29.101562 -5.9375 28.3125 -5.15625 C 27.53125 -4.382812 26.59375 -4 25.5 -4 Z M 25.5 -4 "></path></g></g></g><g fill="#17171b" fill-opacity="1"><g transform="translate(297.532223, 87.077204)"><g><path d="M 7.515625 0 L 7.515625 -25.15625 L 3.515625 -25.15625 L 3.515625 0 Z M 7.515625 0 "></path></g></g></g><g fill="#17171b" fill-opacity="1"><g transform="translate(307.150678, 87.077204)"><g><path d="M 36.6875 0 L 31.84375 0 L 28.15625 -5.453125 L 9.046875 -5.453125 L 5.359375 0 L 0.53125 0 L 17.546875 -25.15625 L 19.671875 -25.15625 Z M 25.46875 -9.453125 L 18.59375 -19.59375 L 11.734375 -9.453125 Z M 25.46875 -9.453125 "></path></g></g></g><g clip-path="url(#139c2a0e23)"><g clip-path="url(#c2f87bd2ef)"><g transform="matrix(1, 0, 0, 1, 29, 28)"><g clip-path="url(#20bad28037)"><g clip-path="url(#50b9f68dda)"><g clip-path="url(#1230c25ba9)"><path fill="#17171b" d="M 0.144531 0.820312 L 86.765625 0.820312 L 86.765625 87.441406 L 0.144531 87.441406 Z M 0.144531 0.820312 " fill-opacity="1" fill-rule="nonzero"></path></g></g></g></g></g></g><g clip-path="url(#b354cff9e8)"><g clip-path="url(#ac4c8530a3)"><path stroke-linecap="butt" transform="matrix(0.748707, 0, 0, 0.748707, 29.143801, 28.820524)" fill="none" stroke-linejoin="miter" d="M 9.997378 -0.000281845 L 105.68841 -0.000281845 C 111.208344 -0.000281845 115.69003 4.476186 115.69003 10.001338 L 115.69003 105.687152 C 115.69003 111.212304 111.208344 115.688772 105.68841 115.688772 L 9.997378 115.688772 C 4.477444 115.688772 0.000975859 111.212304 0.000975859 105.687152 L 0.000975859 10.001338 C 0.000975859 4.476186 4.477444 -0.000281845 9.997378 -0.000281845 Z M 9.997378 -0.000281845 " stroke="#17171b" stroke-width="8" stroke-opacity="1" stroke-miterlimit="4"></path></g></g><g transform="matrix(1, 0, 0, 1, 33, 45)"><g clip-path="url(#64f8fd26b6)"><g fill="#ffffff" fill-opacity="1"><g transform="translate(0.263493, 46.419452)"><g><path d="M 38.203125 0 C 41.523438 0 44.445312 -1.207031 46.96875 -3.625 C 49.363281 -6.070312 50.582031 -9.003906 50.625 -12.421875 L 50.625 -16.421875 C 50.625 -17.640625 50.1875 -18.679688 49.3125 -19.546875 C 48.4375 -20.421875 47.394531 -20.859375 46.1875 -20.859375 L 27.34375 -20.859375 L 27.34375 -14.65625 L 44.40625 -14.65625 L 44.40625 -12.421875 C 44.40625 -10.742188 43.800781 -9.28125 42.59375 -8.03125 C 41.320312 -6.8125 39.859375 -6.203125 38.203125 -6.203125 L 16.5 -6.203125 C 14.78125 -6.203125 13.316406 -6.804688 12.109375 -8.015625 C 10.898438 -9.222656 10.296875 -10.691406 10.296875 -12.421875 L 10.296875 -26.65625 C 10.296875 -28.363281 10.898438 -29.820312 12.109375 -31.03125 C 13.316406 -32.25 14.78125 -32.859375 16.5 -32.859375 L 38.203125 -32.859375 C 39.910156 -32.859375 41.367188 -32.25 42.578125 -31.03125 C 43.796875 -29.820312 44.40625 -28.363281 44.40625 -26.65625 L 50.625 -26.65625 C 50.625 -30.070312 49.410156 -32.988281 46.984375 -35.40625 C 44.554688 -37.832031 41.628906 -39.046875 38.203125 -39.046875 L 16.5 -39.046875 C 13.070312 -39.046875 10.144531 -37.832031 7.71875 -35.40625 C 5.289062 -32.988281 4.078125 -30.070312 4.078125 -26.65625 L 4.078125 -12.421875 C 4.078125 -8.984375 5.289062 -6.050781 7.71875 -3.625 C 10.144531 -1.207031 13.070312 0 16.5 0 Z M 38.203125 0 "></path></g></g></g></g></g><g clip-path="url(#b3eeb55255)"><g clip-path="url(#b96c550af4)"><g transform="matrix(1, 0, 0, 1, 99, 64)"><g clip-path="url(#fdbfb712e9)"><g clip-path="url(#41aba9161b)"><g clip-path="url(#7aed8f1ae0)"><path fill="#ffffff" d="M 0.148438 0 L 9.644531 0 L 9.644531 9.425781 L 0.148438 9.425781 Z M 0.148438 0 " fill-opacity="1" fill-rule="nonzero"></path></g></g></g></g></g></g><g clip-path="url(#1e9f83211f)"><g clip-path="url(#2d7ea384e0)"><path stroke-linecap="butt" transform="matrix(0.748707, 0, 0, 0.748707, 99.148175, 64.00048)" fill="none" stroke-linejoin="miter" d="M 2.003805 -0.000640554 L 10.68544 -0.000640554 C 11.791514 -0.000640554 12.683677 0.89674 12.683677 1.997596 L 12.683677 10.580103 C 12.683677 11.680959 11.791514 12.57834 10.68544 12.57834 L 2.003805 12.57834 C 0.897731 12.57834 0.000350299 11.680959 0.000350299 10.580103 L 0.000350299 1.997596 C 0.000350299 0.89674 0.897731 -0.000640554 2.003805 -0.000640554 Z M 2.003805 -0.000640554 " stroke="#ffffff" stroke-width="3" stroke-opacity="1" stroke-miterlimit="4"></path></g></g><g clip-path="url(#961e846760)"><g clip-path="url(#d0dc4e1e31)"><g transform="matrix(1, 0, 0, 1, 99, 52)"><g clip-path="url(#a1b721e613)"><g clip-path="url(#482986d26d)"><g clip-path="url(#09605a7d2d)"><path fill="#ffffff" d="M 0.148438 0.636719 L 9.644531 0.636719 L 9.644531 10.058594 L 0.148438 10.058594 Z M 0.148438 0.636719 " fill-opacity="1" fill-rule="nonzero"></path></g></g></g></g></g></g><g clip-path="url(#0251c7cd76)"><g clip-path="url(#c0fa13fdef)"><path stroke-linecap="butt" transform="matrix(0.748707, 0, 0, 0.748707, 99.148175, 52.636557)" fill="none" stroke-linejoin="miter" d="M 2.003805 0.000216483 L 10.68544 0.000216483 C 11.791514 0.000216483 12.683677 0.89238 12.683677 1.998454 L 12.683677 10.58096 C 12.683677 11.681816 11.791514 12.579197 10.68544 12.579197 L 2.003805 12.579197 C 0.897731 12.579197 0.000350299 11.681816 0.000350299 10.58096 L 0.000350299 1.998454 C 0.000350299 0.89238 0.897731 0.000216483 2.003805 0.000216483 Z M 2.003805 0.000216483 " stroke="#ffffff" stroke-width="3" stroke-opacity="1" stroke-miterlimit="4"></path></g></g><g clip-path="url(#e5c8e4f3b1)"><g clip-path="url(#77d40ee825)"><g transform="matrix(1, 0, 0, 1, 87, 52)"><g clip-path="url(#93396b1baf)"><g clip-path="url(#3aa5fe315a)"><g clip-path="url(#4af0395be9)"><path fill="#ffffff" d="M 0.980469 0.636719 L 10.476562 0.636719 L 10.476562 10.058594 L 0.980469 10.058594 Z M 0.980469 0.636719 " fill-opacity="1" fill-rule="nonzero"></path></g></g></g></g></g></g><g clip-path="url(#51f5d93866)"><g clip-path="url(#66aea159e5)"><path stroke-linecap="butt" transform="matrix(0.748707, 0, 0, 0.748707, 87.979355, 52.636557)" fill="none" stroke-linejoin="miter" d="M 1.999725 0.000216483 L 10.686578 0.000216483 C 11.792652 0.000216483 12.684815 0.89238 12.684815 1.998454 L 12.684815 10.58096 C 12.684815 11.681816 11.792652 12.579197 10.686578 12.579197 L 1.999725 12.579197 C 0.898869 12.579197 0.00148819 11.681816 0.00148819 10.58096 L 0.00148819 1.998454 C 0.00148819 0.89238 0.898869 0.000216483 1.999725 0.000216483 Z M 1.999725 0.000216483 " stroke="#ffffff" stroke-width="3" stroke-opacity="1" stroke-miterlimit="4"></path></g></g></svg>