<svg xmlns="http://www.w3.org/2000/svg" xmlns:xlink="http://www.w3.org/1999/xlink" width="500" zoomAndPan="magnify" viewBox="0 0 375 374.999991" height="500" preserveAspectRatio="xMidYMid meet" version="1.0"><defs><g></g><clipPath id="7da37ba86a"><path d="M 7.320312 7.328125 L 368 7.328125 L 368 367.671875 L 7.320312 367.671875 Z M 7.320312 7.328125 " clip-rule="nonzero"></path></clipPath><clipPath id="7882f7d4be"><path d="M 22.320312 7.328125 L 352.679688 7.328125 C 360.960938 7.328125 367.679688 14.042969 367.679688 22.328125 L 367.679688 352.671875 C 367.679688 360.957031 360.960938 367.671875 352.679688 367.671875 L 22.320312 367.671875 C 14.039062 367.671875 7.320312 360.957031 7.320312 352.671875 L 7.320312 22.328125 C 7.320312 14.042969 14.039062 7.328125 22.320312 7.328125 Z M 22.320312 7.328125 " clip-rule="nonzero"></path></clipPath><clipPath id="0165334de4"><path d="M 0.320312 0.328125 L 360.679688 0.328125 L 360.679688 360.671875 L 0.320312 360.671875 Z M 0.320312 0.328125 " clip-rule="nonzero"></path></clipPath><clipPath id="4a3968d6a8"><path d="M 15.320312 0.328125 L 345.679688 0.328125 C 353.960938 0.328125 360.679688 7.042969 360.679688 15.328125 L 360.679688 345.671875 C 360.679688 353.957031 353.960938 360.671875 345.679688 360.671875 L 15.320312 360.671875 C 7.039062 360.671875 0.320312 353.957031 0.320312 345.671875 L 0.320312 15.328125 C 0.320312 7.042969 7.039062 0.328125 15.320312 0.328125 Z M 15.320312 0.328125 " clip-rule="nonzero"></path></clipPath><clipPath id="180449566c"><rect x="0" width="361" y="0" height="361"></rect></clipPath><clipPath id="294f80a803"><rect x="0" width="247" y="0" height="262"></rect></clipPath><clipPath id="9c09e875f4"><path d="M 305.792969 140.777344 L 345.617188 140.777344 L 345.617188 180.144531 L 305.792969 180.144531 Z M 305.792969 140.777344 " clip-rule="nonzero"></path></clipPath><clipPath id="271e0a4087"><path d="M 311.792969 140.777344 L 339.480469 140.777344 C 341.074219 140.777344 342.597656 141.410156 343.722656 142.535156 C 344.847656 143.660156 345.480469 145.1875 345.480469 146.777344 L 345.480469 174.144531 C 345.480469 175.734375 344.847656 177.261719 343.722656 178.386719 C 342.597656 179.511719 341.074219 180.144531 339.480469 180.144531 L 311.792969 180.144531 C 310.199219 180.144531 308.671875 179.511719 307.546875 178.386719 C 306.421875 177.261719 305.792969 175.734375 305.792969 174.144531 L 305.792969 146.777344 C 305.792969 145.1875 306.421875 143.660156 307.546875 142.535156 C 308.671875 141.410156 310.199219 140.777344 311.792969 140.777344 Z M 311.792969 140.777344 " clip-rule="nonzero"></path></clipPath><clipPath id="15a2649bef"><path d="M 0.792969 0.777344 L 40.601562 0.777344 L 40.601562 40.144531 L 0.792969 40.144531 Z M 0.792969 0.777344 " clip-rule="nonzero"></path></clipPath><clipPath id="f92fd70dc4"><path d="M 6.792969 0.777344 L 34.480469 0.777344 C 36.074219 0.777344 37.597656 1.410156 38.722656 2.535156 C 39.847656 3.660156 40.480469 5.1875 40.480469 6.777344 L 40.480469 34.144531 C 40.480469 35.734375 39.847656 37.261719 38.722656 38.386719 C 37.597656 39.511719 36.074219 40.144531 34.480469 40.144531 L 6.792969 40.144531 C 5.199219 40.144531 3.671875 39.511719 2.546875 38.386719 C 1.421875 37.261719 0.792969 35.734375 0.792969 34.144531 L 0.792969 6.777344 C 0.792969 5.1875 1.421875 3.660156 2.546875 2.535156 C 3.671875 1.410156 5.199219 0.777344 6.792969 0.777344 Z M 6.792969 0.777344 " clip-rule="nonzero"></path></clipPath><clipPath id="eb58b57f88"><rect x="0" width="41" y="0" height="41"></rect></clipPath><clipPath id="b421d8615b"><path d="M 305.792969 140.785156 L 345.542969 140.785156 L 345.542969 179.777344 L 305.792969 179.777344 Z M 305.792969 140.785156 " clip-rule="nonzero"></path></clipPath><clipPath id="f82c11d8bb"><path d="M 311.789062 140.785156 L 339.472656 140.785156 C 341.0625 140.785156 342.589844 141.417969 343.714844 142.539062 C 344.839844 143.664062 345.472656 145.191406 345.472656 146.78125 L 345.472656 174.140625 C 345.472656 175.730469 344.839844 177.257812 343.714844 178.378906 C 342.589844 179.503906 341.0625 180.136719 339.472656 180.136719 L 311.789062 180.136719 C 310.199219 180.136719 308.671875 179.503906 307.546875 178.378906 C 306.421875 177.257812 305.792969 175.730469 305.792969 174.140625 L 305.792969 146.78125 C 305.792969 145.191406 306.421875 143.664062 307.546875 142.539062 C 308.671875 141.417969 310.199219 140.785156 311.789062 140.785156 Z M 311.789062 140.785156 " clip-rule="nonzero"></path></clipPath><clipPath id="f631818acf"><path d="M 305.792969 93.308594 L 345.617188 93.308594 L 345.617188 132.671875 L 305.792969 132.671875 Z M 305.792969 93.308594 " clip-rule="nonzero"></path></clipPath><clipPath id="e8577457ec"><path d="M 311.792969 93.308594 L 339.480469 93.308594 C 341.074219 93.308594 342.597656 93.941406 343.722656 95.066406 C 344.847656 96.191406 345.480469 97.71875 345.480469 99.308594 L 345.480469 126.671875 C 345.480469 128.265625 344.847656 129.789062 343.722656 130.914062 C 342.597656 132.042969 341.074219 132.671875 339.480469 132.671875 L 311.792969 132.671875 C 310.199219 132.671875 308.671875 132.042969 307.546875 130.914062 C 306.421875 129.789062 305.792969 128.265625 305.792969 126.671875 L 305.792969 99.308594 C 305.792969 97.71875 306.421875 96.191406 307.546875 95.066406 C 308.671875 93.941406 310.199219 93.308594 311.792969 93.308594 Z M 311.792969 93.308594 " clip-rule="nonzero"></path></clipPath><clipPath id="9520aa7a86"><path d="M 0.792969 0.308594 L 40.601562 0.308594 L 40.601562 39.671875 L 0.792969 39.671875 Z M 0.792969 0.308594 " clip-rule="nonzero"></path></clipPath><clipPath id="fef0c4f71d"><path d="M 6.792969 0.308594 L 34.480469 0.308594 C 36.074219 0.308594 37.597656 0.941406 38.722656 2.066406 C 39.847656 3.191406 40.480469 4.71875 40.480469 6.308594 L 40.480469 33.671875 C 40.480469 35.265625 39.847656 36.789062 38.722656 37.914062 C 37.597656 39.042969 36.074219 39.671875 34.480469 39.671875 L 6.792969 39.671875 C 5.199219 39.671875 3.671875 39.042969 2.546875 37.914062 C 1.421875 36.789062 0.792969 35.265625 0.792969 33.671875 L 0.792969 6.308594 C 0.792969 4.71875 1.421875 3.191406 2.546875 2.066406 C 3.671875 0.941406 5.199219 0.308594 6.792969 0.308594 Z M 6.792969 0.308594 " clip-rule="nonzero"></path></clipPath><clipPath id="3f350a2cce"><rect x="0" width="41" y="0" height="40"></rect></clipPath><clipPath id="6de60f2d90"><path d="M 305.792969 93.3125 L 345.542969 93.3125 L 345.542969 132.308594 L 305.792969 132.308594 Z M 305.792969 93.3125 " clip-rule="nonzero"></path></clipPath><clipPath id="5ad50ae903"><path d="M 311.789062 93.3125 L 339.472656 93.3125 C 341.0625 93.3125 342.589844 93.945312 343.714844 95.070312 C 344.839844 96.195312 345.472656 97.722656 345.472656 99.3125 L 345.472656 126.667969 C 345.472656 128.261719 344.839844 129.785156 343.714844 130.910156 C 342.589844 132.035156 341.0625 132.667969 339.472656 132.667969 L 311.789062 132.667969 C 310.199219 132.667969 308.671875 132.035156 307.546875 130.910156 C 306.421875 129.785156 305.792969 128.261719 305.792969 126.667969 L 305.792969 99.3125 C 305.792969 97.722656 306.421875 96.195312 307.546875 95.070312 C 308.671875 93.945312 310.199219 93.3125 311.789062 93.3125 Z M 311.789062 93.3125 " clip-rule="nonzero"></path></clipPath><clipPath id="80e7f507a1"><path d="M 259.136719 93.308594 L 298.960938 93.308594 L 298.960938 132.671875 L 259.136719 132.671875 Z M 259.136719 93.308594 " clip-rule="nonzero"></path></clipPath><clipPath id="30c000f9b4"><path d="M 265.136719 93.308594 L 292.828125 93.308594 C 294.417969 93.308594 295.945312 93.941406 297.070312 95.066406 C 298.195312 96.191406 298.828125 97.71875 298.828125 99.308594 L 298.828125 126.671875 C 298.828125 128.265625 298.195312 129.789062 297.070312 130.914062 C 295.945312 132.042969 294.417969 132.671875 292.828125 132.671875 L 265.136719 132.671875 C 263.542969 132.671875 262.019531 132.042969 260.894531 130.914062 C 259.769531 129.789062 259.136719 128.265625 259.136719 126.671875 L 259.136719 99.308594 C 259.136719 97.71875 259.769531 96.191406 260.894531 95.066406 C 262.019531 93.941406 263.542969 93.308594 265.136719 93.308594 Z M 265.136719 93.308594 " clip-rule="nonzero"></path></clipPath><clipPath id="83c9a7471c"><path d="M 0.136719 0.308594 L 39.960938 0.308594 L 39.960938 39.671875 L 0.136719 39.671875 Z M 0.136719 0.308594 " clip-rule="nonzero"></path></clipPath><clipPath id="df1f6afe03"><path d="M 6.136719 0.308594 L 33.828125 0.308594 C 35.417969 0.308594 36.945312 0.941406 38.070312 2.066406 C 39.195312 3.191406 39.828125 4.71875 39.828125 6.308594 L 39.828125 33.671875 C 39.828125 35.265625 39.195312 36.789062 38.070312 37.914062 C 36.945312 39.042969 35.417969 39.671875 33.828125 39.671875 L 6.136719 39.671875 C 4.542969 39.671875 3.019531 39.042969 1.894531 37.914062 C 0.769531 36.789062 0.136719 35.265625 0.136719 33.671875 L 0.136719 6.308594 C 0.136719 4.71875 0.769531 3.191406 1.894531 2.066406 C 3.019531 0.941406 4.542969 0.308594 6.136719 0.308594 Z M 6.136719 0.308594 " clip-rule="nonzero"></path></clipPath><clipPath id="010ddfbc55"><rect x="0" width="40" y="0" height="40"></rect></clipPath><clipPath id="6d071b6ada"><path d="M 259.136719 93.3125 L 298.886719 93.3125 L 298.886719 132.308594 L 259.136719 132.308594 Z M 259.136719 93.3125 " clip-rule="nonzero"></path></clipPath><clipPath id="c5d01d39d7"><path d="M 265.132812 93.3125 L 292.816406 93.3125 C 294.40625 93.3125 295.933594 93.945312 297.058594 95.070312 C 298.183594 96.195312 298.816406 97.722656 298.816406 99.3125 L 298.816406 126.667969 C 298.816406 128.261719 298.183594 129.785156 297.058594 130.910156 C 295.933594 132.035156 294.40625 132.667969 292.816406 132.667969 L 265.132812 132.667969 C 263.542969 132.667969 262.015625 132.035156 260.890625 130.910156 C 259.769531 129.785156 259.136719 128.261719 259.136719 126.667969 L 259.136719 99.3125 C 259.136719 97.722656 259.769531 96.195312 260.890625 95.070312 C 262.015625 93.945312 263.542969 93.3125 265.132812 93.3125 Z M 265.132812 93.3125 " clip-rule="nonzero"></path></clipPath></defs><rect x="-37.5" width="450" fill="#ffffff" y="-37.499999" height="449.999989" fill-opacity="1"></rect><rect x="-37.5" width="450" fill="#ffffff" y="-37.499999" height="449.999989" fill-opacity="1"></rect><g clip-path="url(#7da37ba86a)"><g clip-path="url(#7882f7d4be)"><g transform="matrix(1, 0, 0, 1, 7, 7)"><g clip-path="url(#180449566c)"><g clip-path="url(#0165334de4)"><g clip-path="url(#4a3968d6a8)"><path fill="#4f186d" d="M 0.320312 0.328125 L 360.667969 0.328125 L 360.667969 360.671875 L 0.320312 360.671875 Z M 0.320312 0.328125 " fill-opacity="1" fill-rule="nonzero"></path></g></g></g></g></g></g><g transform="matrix(1, 0, 0, 1, 13, 64)"><g clip-path="url(#294f80a803)"><g fill="#e07400" fill-opacity="1"><g transform="translate(0.306458, 210.118252)"><g><path d="M 171.671875 0 C 186.597656 0 199.734375 -5.425781 211.078125 -16.28125 C 221.835938 -27.289062 227.300781 -40.460938 227.46875 -55.796875 L 227.46875 -73.78125 C 227.46875 -79.25 225.507812 -83.941406 221.59375 -87.859375 C 217.675781 -91.773438 212.984375 -93.734375 207.515625 -93.734375 L 122.84375 -93.734375 L 122.84375 -65.828125 L 199.5625 -65.828125 L 199.5625 -55.796875 C 199.5625 -48.296875 196.832031 -41.726562 191.375 -36.09375 C 185.664062 -30.625 179.097656 -27.890625 171.671875 -27.890625 L 74.15625 -27.890625 C 66.40625 -27.890625 59.816406 -30.601562 54.390625 -36.03125 C 48.960938 -41.457031 46.25 -48.046875 46.25 -55.796875 L 46.25 -119.796875 C 46.25 -127.460938 48.960938 -134.023438 54.390625 -139.484375 C 59.816406 -144.953125 66.40625 -147.6875 74.15625 -147.6875 L 171.671875 -147.6875 C 179.335938 -147.6875 185.898438 -144.953125 191.359375 -139.484375 C 196.828125 -134.023438 199.5625 -127.460938 199.5625 -119.796875 L 227.46875 -119.796875 C 227.46875 -135.128906 222.019531 -148.238281 211.125 -159.125 C 200.238281 -170.019531 187.085938 -175.46875 171.671875 -175.46875 L 74.15625 -175.46875 C 58.738281 -175.46875 45.582031 -170.019531 34.6875 -159.125 C 23.800781 -148.238281 18.359375 -135.128906 18.359375 -119.796875 L 18.359375 -55.796875 C 18.359375 -40.378906 23.800781 -27.222656 34.6875 -16.328125 C 45.582031 -5.441406 58.738281 0 74.15625 0 Z M 171.671875 0 "></path></g></g></g></g></g><g clip-path="url(#9c09e875f4)"><g clip-path="url(#271e0a4087)"><g transform="matrix(1, 0, 0, 1, 305, 140)"><g clip-path="url(#eb58b57f88)"><g clip-path="url(#15a2649bef)"><g clip-path="url(#f92fd70dc4)"><path fill="#e07400" d="M 0.792969 0.777344 L 40.464844 0.777344 L 40.464844 40.144531 L 0.792969 40.144531 Z M 0.792969 0.777344 " fill-opacity="1" fill-rule="nonzero"></path></g></g></g></g></g></g><g clip-path="url(#b421d8615b)"><g clip-path="url(#f82c11d8bb)"><path stroke-linecap="butt" transform="matrix(0.75, 0, 0, 0.75, 305.791038, 140.779268)" fill="none" stroke-linejoin="miter" d="M 7.997366 0.00785159 L 44.908827 0.00785159 C 47.028619 0.00785159 49.065078 0.851602 50.565078 2.346393 C 52.065078 3.846394 52.908828 5.882852 52.908828 8.002644 L 52.908828 44.481813 C 52.908828 46.601605 52.065078 48.638063 50.565078 50.132855 C 49.065078 51.632855 47.028619 52.476605 44.908827 52.476605 L 7.997366 52.476605 C 5.877575 52.476605 3.841116 51.632855 2.341116 50.132855 C 0.841116 48.638063 0.00257431 46.601605 0.00257431 44.481813 L 0.00257431 8.002644 C 0.00257431 5.882852 0.841116 3.846394 2.341116 2.346393 C 3.841116 0.851602 5.877575 0.00785159 7.997366 0.00785159 Z M 7.997366 0.00785159 " stroke="#e07400" stroke-width="3" stroke-opacity="1" stroke-miterlimit="4"></path></g></g><g clip-path="url(#f631818acf)"><g clip-path="url(#e8577457ec)"><g transform="matrix(1, 0, 0, 1, 305, 93)"><g clip-path="url(#3f350a2cce)"><g clip-path="url(#9520aa7a86)"><g clip-path="url(#fef0c4f71d)"><path fill="#e07400" d="M 0.792969 0.308594 L 40.464844 0.308594 L 40.464844 39.671875 L 0.792969 39.671875 Z M 0.792969 0.308594 " fill-opacity="1" fill-rule="nonzero"></path></g></g></g></g></g></g><g clip-path="url(#6de60f2d90)"><g clip-path="url(#5ad50ae903)"><path stroke-linecap="butt" transform="matrix(0.75, 0, 0, 0.75, 305.791038, 93.3089)" fill="none" stroke-linejoin="miter" d="M 7.997366 0.00479964 L 44.908827 0.00479964 C 47.028619 0.00479964 49.065078 0.84855 50.565078 2.34855 C 52.065078 3.84855 52.908828 5.885008 52.908828 8.0048 L 52.908828 44.478761 C 52.908828 46.603761 52.065078 48.635011 50.565078 50.135011 C 49.065078 51.635011 47.028619 52.478761 44.908827 52.478761 L 7.997366 52.478761 C 5.877575 52.478761 3.841116 51.635011 2.341116 50.135011 C 0.841116 48.635011 0.00257431 46.603761 0.00257431 44.478761 L 0.00257431 8.0048 C 0.00257431 5.885008 0.841116 3.84855 2.341116 2.34855 C 3.841116 0.84855 5.877575 0.00479964 7.997366 0.00479964 Z M 7.997366 0.00479964 " stroke="#e07400" stroke-width="3" stroke-opacity="1" stroke-miterlimit="4"></path></g></g><g clip-path="url(#80e7f507a1)"><g clip-path="url(#30c000f9b4)"><g transform="matrix(1, 0, 0, 1, 259, 93)"><g clip-path="url(#010ddfbc55)"><g clip-path="url(#83c9a7471c)"><g clip-path="url(#df1f6afe03)"><path fill="#e07400" d="M 0.136719 0.308594 L 39.808594 0.308594 L 39.808594 39.671875 L 0.136719 39.671875 Z M 0.136719 0.308594 " fill-opacity="1" fill-rule="nonzero"></path></g></g></g></g></g></g><g clip-path="url(#6d071b6ada)"><g clip-path="url(#c5d01d39d7)"><path stroke-linecap="butt" transform="matrix(0.75, 0, 0, 0.75, 259.135651, 93.3089)" fill="none" stroke-linejoin="miter" d="M 7.996216 0.00479964 L 44.907677 0.00479964 C 47.027469 0.00479964 49.063927 0.84855 50.563927 2.34855 C 52.063928 3.84855 52.907678 5.885008 52.907678 8.0048 L 52.907678 44.478761 C 52.907678 46.603761 52.063928 48.635011 50.563927 50.135011 C 49.063927 51.635011 47.027469 52.478761 44.907677 52.478761 L 7.996216 52.478761 C 5.876424 52.478761 3.839966 51.635011 2.339966 50.135011 C 0.845174 48.635011 0.00142409 46.603761 0.00142409 44.478761 L 0.00142409 8.0048 C 0.00142409 5.885008 0.845174 3.84855 2.339966 2.34855 C 3.839966 0.84855 5.876424 0.00479964 7.996216 0.00479964 Z M 7.996216 0.00479964 " stroke="#e07400" stroke-width="3" stroke-opacity="1" stroke-miterlimit="4"></path></g></g></svg>