<svg xmlns="http://www.w3.org/2000/svg" xmlns:xlink="http://www.w3.org/1999/xlink" width="500" zoomAndPan="magnify" viewBox="0 0 375 374.999991" height="500" preserveAspectRatio="xMidYMid meet" version="1.0"><defs><g></g><clipPath id="7c775a06f0"><path d="M 296.929688 147.601562 L 337.636719 147.601562 L 337.636719 187.839844 L 296.929688 187.839844 Z M 296.929688 147.601562 " clip-rule="nonzero"></path></clipPath><clipPath id="21cf08dbb7"><path d="M 302.929688 147.601562 L 331.5 147.601562 C 333.089844 147.601562 334.617188 148.234375 335.742188 149.359375 C 336.867188 150.484375 337.5 152.011719 337.5 153.601562 L 337.5 181.839844 C 337.5 183.429688 336.867188 184.957031 335.742188 186.082031 C 334.617188 187.207031 333.089844 187.839844 331.5 187.839844 L 302.929688 187.839844 C 301.339844 187.839844 299.8125 187.207031 298.6875 186.082031 C 297.5625 184.957031 296.929688 183.429688 296.929688 181.839844 L 296.929688 153.601562 C 296.929688 152.011719 297.5625 150.484375 298.6875 149.359375 C 299.8125 148.234375 301.339844 147.601562 302.929688 147.601562 Z M 302.929688 147.601562 " clip-rule="nonzero"></path></clipPath><clipPath id="46889bb9c1"><path d="M 0.929688 0.601562 L 41.636719 0.601562 L 41.636719 40.839844 L 0.929688 40.839844 Z M 0.929688 0.601562 " clip-rule="nonzero"></path></clipPath><clipPath id="8962b5622f"><path d="M 6.929688 0.601562 L 35.5 0.601562 C 37.089844 0.601562 38.617188 1.234375 39.742188 2.359375 C 40.867188 3.484375 41.5 5.011719 41.5 6.601562 L 41.5 34.839844 C 41.5 36.429688 40.867188 37.957031 39.742188 39.082031 C 38.617188 40.207031 37.089844 40.839844 35.5 40.839844 L 6.929688 40.839844 C 5.339844 40.839844 3.8125 40.207031 2.6875 39.082031 C 1.5625 37.957031 0.929688 36.429688 0.929688 34.839844 L 0.929688 6.601562 C 0.929688 5.011719 1.5625 3.484375 2.6875 2.359375 C 3.8125 1.234375 5.339844 0.601562 6.929688 0.601562 Z M 6.929688 0.601562 " clip-rule="nonzero"></path></clipPath><clipPath id="8abb5314d9"><rect x="0" width="42" y="0" height="41"></rect></clipPath><clipPath id="87d1ea25f4"><path d="M 296.933594 147.601562 L 337.429688 147.601562 L 337.429688 188 L 296.933594 188 Z M 296.933594 147.601562 " clip-rule="nonzero"></path></clipPath><clipPath id="4706140c8f"><path d="M 302.933594 147.601562 L 331.496094 147.601562 C 333.089844 147.601562 334.613281 148.234375 335.738281 149.359375 C 336.863281 150.484375 337.496094 152.007812 337.496094 153.601562 L 337.496094 181.832031 C 337.496094 183.421875 336.863281 184.949219 335.738281 186.074219 C 334.613281 187.199219 333.089844 187.832031 331.496094 187.832031 L 302.933594 187.832031 C 301.339844 187.832031 299.816406 187.199219 298.691406 186.074219 C 297.566406 184.949219 296.933594 183.421875 296.933594 181.832031 L 296.933594 153.601562 C 296.933594 152.007812 297.566406 150.484375 298.691406 149.359375 C 299.816406 148.234375 301.339844 147.601562 302.933594 147.601562 Z M 302.933594 147.601562 " clip-rule="nonzero"></path></clipPath><clipPath id="43fcfb3d5c"><path d="M 296.929688 99.078125 L 337.636719 99.078125 L 337.636719 139.316406 L 296.929688 139.316406 Z M 296.929688 99.078125 " clip-rule="nonzero"></path></clipPath><clipPath id="db52d248f2"><path d="M 302.929688 99.078125 L 331.5 99.078125 C 333.089844 99.078125 334.617188 99.710938 335.742188 100.835938 C 336.867188 101.960938 337.5 103.488281 337.5 105.078125 L 337.5 133.316406 C 337.5 134.90625 336.867188 136.433594 335.742188 137.558594 C 334.617188 138.683594 333.089844 139.316406 331.5 139.316406 L 302.929688 139.316406 C 301.339844 139.316406 299.8125 138.683594 298.6875 137.558594 C 297.5625 136.433594 296.929688 134.90625 296.929688 133.316406 L 296.929688 105.078125 C 296.929688 103.488281 297.5625 101.960938 298.6875 100.835938 C 299.8125 99.710938 301.339844 99.078125 302.929688 99.078125 Z M 302.929688 99.078125 " clip-rule="nonzero"></path></clipPath><clipPath id="c602676d1e"><path d="M 0.929688 0.078125 L 41.636719 0.078125 L 41.636719 40.316406 L 0.929688 40.316406 Z M 0.929688 0.078125 " clip-rule="nonzero"></path></clipPath><clipPath id="cd738981a8"><path d="M 6.929688 0.078125 L 35.5 0.078125 C 37.089844 0.078125 38.617188 0.710938 39.742188 1.835938 C 40.867188 2.960938 41.5 4.488281 41.5 6.078125 L 41.5 34.316406 C 41.5 35.90625 40.867188 37.433594 39.742188 38.558594 C 38.617188 39.683594 37.089844 40.316406 35.5 40.316406 L 6.929688 40.316406 C 5.339844 40.316406 3.8125 39.683594 2.6875 38.558594 C 1.5625 37.433594 0.929688 35.90625 0.929688 34.316406 L 0.929688 6.078125 C 0.929688 4.488281 1.5625 2.960938 2.6875 1.835938 C 3.8125 0.710938 5.339844 0.078125 6.929688 0.078125 Z M 6.929688 0.078125 " clip-rule="nonzero"></path></clipPath><clipPath id="8a90085d3d"><rect x="0" width="42" y="0" height="41"></rect></clipPath><clipPath id="0a3fa575d4"><path d="M 296.933594 99.078125 L 337.429688 99.078125 L 337.429688 139.535156 L 296.933594 139.535156 Z M 296.933594 99.078125 " clip-rule="nonzero"></path></clipPath><clipPath id="258a836469"><path d="M 302.933594 99.078125 L 331.496094 99.078125 C 333.089844 99.078125 334.613281 99.710938 335.738281 100.835938 C 336.863281 101.960938 337.496094 103.488281 337.496094 105.078125 L 337.496094 133.308594 C 337.496094 134.902344 336.863281 136.425781 335.738281 137.550781 C 334.613281 138.675781 333.089844 139.308594 331.496094 139.308594 L 302.933594 139.308594 C 301.339844 139.308594 299.816406 138.675781 298.691406 137.550781 C 297.566406 136.425781 296.933594 134.902344 296.933594 133.308594 L 296.933594 105.078125 C 296.933594 103.488281 297.566406 101.960938 298.691406 100.835938 C 299.816406 99.710938 301.339844 99.078125 302.933594 99.078125 Z M 302.933594 99.078125 " clip-rule="nonzero"></path></clipPath><clipPath id="c8e4fcc8bc"><path d="M 249.238281 99.078125 L 289.949219 99.078125 L 289.949219 139.316406 L 249.238281 139.316406 Z M 249.238281 99.078125 " clip-rule="nonzero"></path></clipPath><clipPath id="2d520ac45e"><path d="M 255.238281 99.078125 L 283.808594 99.078125 C 285.402344 99.078125 286.925781 99.710938 288.054688 100.835938 C 289.179688 101.960938 289.808594 103.488281 289.808594 105.078125 L 289.808594 133.316406 C 289.808594 134.90625 289.179688 136.433594 288.054688 137.558594 C 286.925781 138.683594 285.402344 139.316406 283.808594 139.316406 L 255.238281 139.316406 C 253.648438 139.316406 252.121094 138.683594 250.996094 137.558594 C 249.871094 136.433594 249.238281 134.90625 249.238281 133.316406 L 249.238281 105.078125 C 249.238281 103.488281 249.871094 101.960938 250.996094 100.835938 C 252.121094 99.710938 253.648438 99.078125 255.238281 99.078125 Z M 255.238281 99.078125 " clip-rule="nonzero"></path></clipPath><clipPath id="6cfc640fe3"><path d="M 0.238281 0.078125 L 40.921875 0.078125 L 40.921875 40.316406 L 0.238281 40.316406 Z M 0.238281 0.078125 " clip-rule="nonzero"></path></clipPath><clipPath id="fe4a9925f2"><path d="M 6.238281 0.078125 L 34.808594 0.078125 C 36.402344 0.078125 37.925781 0.710938 39.054688 1.835938 C 40.179688 2.960938 40.808594 4.488281 40.808594 6.078125 L 40.808594 34.316406 C 40.808594 35.90625 40.179688 37.433594 39.054688 38.558594 C 37.925781 39.683594 36.402344 40.316406 34.808594 40.316406 L 6.238281 40.316406 C 4.648438 40.316406 3.121094 39.683594 1.996094 38.558594 C 0.871094 37.433594 0.238281 35.90625 0.238281 34.316406 L 0.238281 6.078125 C 0.238281 4.488281 0.871094 2.960938 1.996094 1.835938 C 3.121094 0.710938 4.648438 0.078125 6.238281 0.078125 Z M 6.238281 0.078125 " clip-rule="nonzero"></path></clipPath><clipPath id="a9bf6187e6"><rect x="0" width="41" y="0" height="41"></rect></clipPath><clipPath id="0297118501"><path d="M 249.242188 99.078125 L 289.738281 99.078125 L 289.738281 139.535156 L 249.242188 139.535156 Z M 249.242188 99.078125 " clip-rule="nonzero"></path></clipPath><clipPath id="659184d9cd"><path d="M 255.242188 99.078125 L 283.808594 99.078125 C 285.398438 99.078125 286.925781 99.710938 288.050781 100.835938 C 289.175781 101.960938 289.808594 103.488281 289.808594 105.078125 L 289.808594 133.308594 C 289.808594 134.902344 289.175781 136.425781 288.050781 137.550781 C 286.925781 138.675781 285.398438 139.308594 283.808594 139.308594 L 255.242188 139.308594 C 253.652344 139.308594 252.125 138.675781 251 137.550781 C 249.875 136.425781 249.242188 134.902344 249.242188 133.308594 L 249.242188 105.078125 C 249.242188 103.488281 249.875 101.960938 251 100.835938 C 252.125 99.710938 253.652344 99.078125 255.242188 99.078125 Z M 255.242188 99.078125 " clip-rule="nonzero"></path></clipPath></defs><rect x="-37.5" width="450" fill="#ffffff" y="-37.499999" height="449.999989" fill-opacity="1"></rect><rect x="-37.5" width="450" fill="#e07400" y="-37.499999" height="449.999989" fill-opacity="1"></rect><g fill="#4f186d" fill-opacity="1"><g transform="translate(-2.039224, 283.896193)"><g><path d="M 175.46875 0 C 190.726562 0 204.15625 -5.546875 215.75 -16.640625 C 226.75 -27.890625 232.332031 -41.351562 232.5 -57.03125 L 232.5 -75.421875 C 232.5 -81.003906 230.5 -85.796875 226.5 -89.796875 C 222.5 -93.796875 217.703125 -95.796875 212.109375 -95.796875 L 125.5625 -95.796875 L 125.5625 -67.28125 L 203.984375 -67.28125 L 203.984375 -57.03125 C 203.984375 -49.363281 201.191406 -42.648438 195.609375 -36.890625 C 189.773438 -31.304688 183.0625 -28.515625 175.46875 -28.515625 L 75.796875 -28.515625 C 67.867188 -28.515625 61.132812 -31.285156 55.59375 -36.828125 C 50.050781 -42.378906 47.28125 -49.113281 47.28125 -57.03125 L 47.28125 -122.4375 C 47.28125 -130.28125 50.050781 -136.992188 55.59375 -142.578125 C 61.132812 -148.160156 67.867188 -150.953125 75.796875 -150.953125 L 175.46875 -150.953125 C 183.3125 -150.953125 190.023438 -148.160156 195.609375 -142.578125 C 201.191406 -136.992188 203.984375 -130.28125 203.984375 -122.4375 L 232.5 -122.4375 C 232.5 -138.113281 226.929688 -151.515625 215.796875 -162.640625 C 204.671875 -173.773438 191.226562 -179.34375 175.46875 -179.34375 L 75.796875 -179.34375 C 60.035156 -179.34375 46.585938 -173.773438 35.453125 -162.640625 C 24.328125 -151.515625 18.765625 -138.113281 18.765625 -122.4375 L 18.765625 -57.03125 C 18.765625 -41.269531 24.328125 -27.820312 35.453125 -16.6875 C 46.585938 -5.5625 60.035156 0 75.796875 0 Z M 175.46875 0 "></path></g></g></g><g clip-path="url(#7c775a06f0)"><g clip-path="url(#21cf08dbb7)"><g transform="matrix(1, 0, 0, 1, 296, 147)"><g clip-path="url(#8abb5314d9)"><g clip-path="url(#46889bb9c1)"><g clip-path="url(#8962b5622f)"><path fill="#4f186d" d="M 0.929688 0.601562 L 41.480469 0.601562 L 41.480469 40.839844 L 0.929688 40.839844 Z M 0.929688 0.601562 " fill-opacity="1" fill-rule="nonzero"></path></g></g></g></g></g></g><g clip-path="url(#87d1ea25f4)"><g clip-path="url(#4706140c8f)"><path stroke-linecap="butt" transform="matrix(0.75, 0, 0, 0.75, 296.929555, 147.601162)" fill="none" stroke-linejoin="miter" d="M 8.005387 0.000534657 L 46.088725 0.000534657 C 48.213725 0.000534657 50.244975 0.844285 51.744976 2.344285 C 53.244976 3.844285 54.088726 5.875535 54.088726 8.000536 L 54.088726 45.641166 C 54.088726 47.760958 53.244976 49.797416 51.744976 51.297416 C 50.244975 52.797417 48.213725 53.641167 46.088725 53.641167 L 8.005387 53.641167 C 5.880386 53.641167 3.849136 52.797417 2.349136 51.297416 C 0.849136 49.797416 0.00538553 47.760958 0.00538553 45.641166 L 0.00538553 8.000536 C 0.00538553 5.875535 0.849136 3.844285 2.349136 2.344285 C 3.849136 0.844285 5.880386 0.000534657 8.005387 0.000534657 Z M 8.005387 0.000534657 " stroke="#4f186d" stroke-width="3" stroke-opacity="1" stroke-miterlimit="4"></path></g></g><g clip-path="url(#43fcfb3d5c)"><g clip-path="url(#db52d248f2)"><g transform="matrix(1, 0, 0, 1, 296, 99)"><g clip-path="url(#8a90085d3d)"><g clip-path="url(#c602676d1e)"><g clip-path="url(#cd738981a8)"><path fill="#4f186d" d="M 0.929688 0.078125 L 41.480469 0.078125 L 41.480469 40.316406 L 0.929688 40.316406 Z M 0.929688 0.078125 " fill-opacity="1" fill-rule="nonzero"></path></g></g></g></g></g></g><g clip-path="url(#0a3fa575d4)"><g clip-path="url(#258a836469)"><path stroke-linecap="butt" transform="matrix(0.75, 0, 0, 0.75, 296.929555, 99.078392)" fill="none" stroke-linejoin="miter" d="M 8.005387 -0.000355859 L 46.088725 -0.000355859 C 48.213725 -0.000355859 50.244975 0.843394 51.744976 2.343394 C 53.244976 3.843395 54.088726 5.879853 54.088726 7.999645 L 54.088726 45.640275 C 54.088726 47.765275 53.244976 49.796526 51.744976 51.296526 C 50.244975 52.796526 48.213725 53.640276 46.088725 53.640276 L 8.005387 53.640276 C 5.880386 53.640276 3.849136 52.796526 2.349136 51.296526 C 0.849136 49.796526 0.00538553 47.765275 0.00538553 45.640275 L 0.00538553 7.999645 C 0.00538553 5.879853 0.849136 3.843395 2.349136 2.343394 C 3.849136 0.843394 5.880386 -0.000355859 8.005387 -0.000355859 Z M 8.005387 -0.000355859 " stroke="#4f186d" stroke-width="3" stroke-opacity="1" stroke-miterlimit="4"></path></g></g><g clip-path="url(#c8e4fcc8bc)"><g clip-path="url(#2d520ac45e)"><g transform="matrix(1, 0, 0, 1, 249, 99)"><g clip-path="url(#a9bf6187e6)"><g clip-path="url(#6cfc640fe3)"><g clip-path="url(#fe4a9925f2)"><path fill="#4f186d" d="M 0.238281 0.078125 L 40.792969 0.078125 L 40.792969 40.316406 L 0.238281 40.316406 Z M 0.238281 0.078125 " fill-opacity="1" fill-rule="nonzero"></path></g></g></g></g></g></g><g clip-path="url(#0297118501)"><g clip-path="url(#659184d9cd)"><path stroke-linecap="butt" transform="matrix(0.75, 0, 0, 0.75, 249.239842, 99.078392)" fill="none" stroke-linejoin="miter" d="M 8.003129 -0.000355859 L 46.091675 -0.000355859 C 48.211467 -0.000355859 50.247926 0.843394 51.747926 2.343394 C 53.247926 3.843395 54.091676 5.879853 54.091676 7.999645 L 54.091676 45.640275 C 54.091676 47.765275 53.247926 49.796526 51.747926 51.296526 C 50.247926 52.796526 48.211467 53.640276 46.091675 53.640276 L 8.003129 53.640276 C 5.883337 53.640276 3.846878 52.796526 2.346878 51.296526 C 0.846878 49.796526 0.00312769 47.765275 0.00312769 45.640275 L 0.00312769 7.999645 C 0.00312769 5.879853 0.846878 3.843395 2.346878 2.343394 C 3.846878 0.843394 5.883337 -0.000355859 8.003129 -0.000355859 Z M 8.003129 -0.000355859 " stroke="#4f186d" stroke-width="3" stroke-opacity="1" stroke-miterlimit="4"></path></g></g></svg>