<svg xmlns="http://www.w3.org/2000/svg" xmlns:xlink="http://www.w3.org/1999/xlink" width="500" zoomAndPan="magnify" viewBox="0 0 375 374.999991" height="500" preserveAspectRatio="xMidYMid meet" version="1.0"><defs><g></g><clipPath id="ee3628981c"><path d="M 310.277344 144.25 L 350.984375 144.25 L 350.984375 184.488281 L 310.277344 184.488281 Z M 310.277344 144.25 " clip-rule="nonzero"></path></clipPath><clipPath id="201c7f8919"><path d="M 316.277344 144.25 L 344.847656 144.25 C 346.4375 144.25 347.964844 144.882812 349.089844 146.007812 C 350.214844 147.132812 350.847656 148.660156 350.847656 150.25 L 350.847656 178.488281 C 350.847656 180.078125 350.214844 181.605469 349.089844 182.730469 C 347.964844 183.855469 346.4375 184.488281 344.847656 184.488281 L 316.277344 184.488281 C 314.6875 184.488281 313.160156 183.855469 312.035156 182.730469 C 310.910156 181.605469 310.277344 180.078125 310.277344 178.488281 L 310.277344 150.25 C 310.277344 148.660156 310.910156 147.132812 312.035156 146.007812 C 313.160156 144.882812 314.6875 144.25 316.277344 144.25 Z M 316.277344 144.25 " clip-rule="nonzero"></path></clipPath><clipPath id="b053b42ad7"><path d="M 0.277344 0.25 L 40.878906 0.25 L 40.878906 40.488281 L 0.277344 40.488281 Z M 0.277344 0.25 " clip-rule="nonzero"></path></clipPath><clipPath id="79480d45ae"><path d="M 6.277344 0.25 L 34.847656 0.25 C 36.4375 0.25 37.964844 0.882812 39.089844 2.007812 C 40.214844 3.132812 40.847656 4.660156 40.847656 6.25 L 40.847656 34.488281 C 40.847656 36.078125 40.214844 37.605469 39.089844 38.730469 C 37.964844 39.855469 36.4375 40.488281 34.847656 40.488281 L 6.277344 40.488281 C 4.6875 40.488281 3.160156 39.855469 2.035156 38.730469 C 0.910156 37.605469 0.277344 36.078125 0.277344 34.488281 L 0.277344 6.25 C 0.277344 4.660156 0.910156 3.132812 2.035156 2.007812 C 3.160156 0.882812 4.6875 0.25 6.277344 0.25 Z M 6.277344 0.25 " clip-rule="nonzero"></path></clipPath><clipPath id="755611685e"><rect x="0" width="41" y="0" height="41"></rect></clipPath><clipPath id="78d925526f"><path d="M 310.28125 144.25 L 350.777344 144.25 L 350.777344 184.707031 L 310.28125 184.707031 Z M 310.28125 144.25 " clip-rule="nonzero"></path></clipPath><clipPath id="aa115943a7"><path d="M 316.28125 144.25 L 344.84375 144.25 C 346.4375 144.25 347.960938 144.882812 349.085938 146.007812 C 350.210938 147.132812 350.84375 148.660156 350.84375 150.25 L 350.84375 178.484375 C 350.84375 180.074219 350.210938 181.601562 349.085938 182.726562 C 347.960938 183.851562 346.4375 184.480469 344.84375 184.480469 L 316.28125 184.480469 C 314.6875 184.480469 313.164062 183.851562 312.039062 182.726562 C 310.914062 181.601562 310.28125 180.074219 310.28125 178.484375 L 310.28125 150.25 C 310.28125 148.660156 310.914062 147.132812 312.039062 146.007812 C 313.164062 144.882812 314.6875 144.25 316.28125 144.25 Z M 316.28125 144.25 " clip-rule="nonzero"></path></clipPath><clipPath id="d60f4abd2d"><path d="M 310.277344 95.730469 L 350.984375 95.730469 L 350.984375 135.964844 L 310.277344 135.964844 Z M 310.277344 95.730469 " clip-rule="nonzero"></path></clipPath><clipPath id="9f22d77527"><path d="M 316.277344 95.730469 L 344.847656 95.730469 C 346.4375 95.730469 347.964844 96.359375 349.089844 97.484375 C 350.214844 98.609375 350.847656 100.136719 350.847656 101.730469 L 350.847656 129.964844 C 350.847656 131.558594 350.214844 133.082031 349.089844 134.207031 C 347.964844 135.332031 346.4375 135.964844 344.847656 135.964844 L 316.277344 135.964844 C 314.6875 135.964844 313.160156 135.332031 312.035156 134.207031 C 310.910156 133.082031 310.277344 131.558594 310.277344 129.964844 L 310.277344 101.730469 C 310.277344 100.136719 310.910156 98.609375 312.035156 97.484375 C 313.160156 96.359375 314.6875 95.730469 316.277344 95.730469 Z M 316.277344 95.730469 " clip-rule="nonzero"></path></clipPath><clipPath id="bf194a5fd1"><path d="M 0.277344 0.730469 L 40.878906 0.730469 L 40.878906 40.964844 L 0.277344 40.964844 Z M 0.277344 0.730469 " clip-rule="nonzero"></path></clipPath><clipPath id="aada9001e0"><path d="M 6.277344 0.730469 L 34.847656 0.730469 C 36.4375 0.730469 37.964844 1.359375 39.089844 2.484375 C 40.214844 3.609375 40.847656 5.136719 40.847656 6.730469 L 40.847656 34.964844 C 40.847656 36.558594 40.214844 38.082031 39.089844 39.207031 C 37.964844 40.332031 36.4375 40.964844 34.847656 40.964844 L 6.277344 40.964844 C 4.6875 40.964844 3.160156 40.332031 2.035156 39.207031 C 0.910156 38.082031 0.277344 36.558594 0.277344 34.964844 L 0.277344 6.730469 C 0.277344 5.136719 0.910156 3.609375 2.035156 2.484375 C 3.160156 1.359375 4.6875 0.730469 6.277344 0.730469 Z M 6.277344 0.730469 " clip-rule="nonzero"></path></clipPath><clipPath id="bdcd937478"><rect x="0" width="41" y="0" height="41"></rect></clipPath><clipPath id="1e9a34b13a"><path d="M 310.28125 95.730469 L 350.777344 95.730469 L 350.777344 136 L 310.28125 136 Z M 310.28125 95.730469 " clip-rule="nonzero"></path></clipPath><clipPath id="3093652af0"><path d="M 316.28125 95.730469 L 344.84375 95.730469 C 346.4375 95.730469 347.960938 96.359375 349.085938 97.484375 C 350.210938 98.609375 350.84375 100.136719 350.84375 101.726562 L 350.84375 129.960938 C 350.84375 131.550781 350.210938 133.078125 349.085938 134.203125 C 347.960938 135.328125 346.4375 135.960938 344.84375 135.960938 L 316.28125 135.960938 C 314.6875 135.960938 313.164062 135.328125 312.039062 134.203125 C 310.914062 133.078125 310.28125 131.550781 310.28125 129.960938 L 310.28125 101.726562 C 310.28125 100.136719 310.914062 98.609375 312.039062 97.484375 C 313.164062 96.359375 314.6875 95.730469 316.28125 95.730469 Z M 316.28125 95.730469 " clip-rule="nonzero"></path></clipPath><clipPath id="2c26ff1403"><path d="M 262.585938 95.730469 L 303.296875 95.730469 L 303.296875 135.964844 L 262.585938 135.964844 Z M 262.585938 95.730469 " clip-rule="nonzero"></path></clipPath><clipPath id="add4d3ebc9"><path d="M 268.585938 95.730469 L 297.15625 95.730469 C 298.75 95.730469 300.273438 96.359375 301.402344 97.484375 C 302.527344 98.609375 303.15625 100.136719 303.15625 101.730469 L 303.15625 129.964844 C 303.15625 131.558594 302.527344 133.082031 301.402344 134.207031 C 300.273438 135.332031 298.75 135.964844 297.15625 135.964844 L 268.585938 135.964844 C 266.996094 135.964844 265.46875 135.332031 264.34375 134.207031 C 263.21875 133.082031 262.585938 131.558594 262.585938 129.964844 L 262.585938 101.730469 C 262.585938 100.136719 263.21875 98.609375 264.34375 97.484375 C 265.46875 96.359375 266.996094 95.730469 268.585938 95.730469 Z M 268.585938 95.730469 " clip-rule="nonzero"></path></clipPath><clipPath id="2f9cb2d2bd"><path d="M 0.585938 0.730469 L 41.296875 0.730469 L 41.296875 40.964844 L 0.585938 40.964844 Z M 0.585938 0.730469 " clip-rule="nonzero"></path></clipPath><clipPath id="463523078a"><path d="M 6.585938 0.730469 L 35.15625 0.730469 C 36.75 0.730469 38.273438 1.359375 39.402344 2.484375 C 40.527344 3.609375 41.15625 5.136719 41.15625 6.730469 L 41.15625 34.964844 C 41.15625 36.558594 40.527344 38.082031 39.402344 39.207031 C 38.273438 40.332031 36.75 40.964844 35.15625 40.964844 L 6.585938 40.964844 C 4.996094 40.964844 3.46875 40.332031 2.34375 39.207031 C 1.21875 38.082031 0.585938 36.558594 0.585938 34.964844 L 0.585938 6.730469 C 0.585938 5.136719 1.21875 3.609375 2.34375 2.484375 C 3.46875 1.359375 4.996094 0.730469 6.585938 0.730469 Z M 6.585938 0.730469 " clip-rule="nonzero"></path></clipPath><clipPath id="824b06e71f"><rect x="0" width="42" y="0" height="41"></rect></clipPath><clipPath id="c38f5158e2"><path d="M 262.589844 95.730469 L 303.085938 95.730469 L 303.085938 136 L 262.589844 136 Z M 262.589844 95.730469 " clip-rule="nonzero"></path></clipPath><clipPath id="3cabb496e3"><path d="M 268.589844 95.730469 L 297.15625 95.730469 C 298.746094 95.730469 300.273438 96.359375 301.398438 97.484375 C 302.523438 98.609375 303.15625 100.136719 303.15625 101.726562 L 303.15625 129.960938 C 303.15625 131.550781 302.523438 133.078125 301.398438 134.203125 C 300.273438 135.328125 298.746094 135.960938 297.15625 135.960938 L 268.589844 135.960938 C 267 135.960938 265.472656 135.328125 264.347656 134.203125 C 263.222656 133.078125 262.589844 131.550781 262.589844 129.960938 L 262.589844 101.726562 C 262.589844 100.136719 263.222656 98.609375 264.347656 97.484375 C 265.472656 96.359375 267 95.730469 268.589844 95.730469 Z M 268.589844 95.730469 " clip-rule="nonzero"></path></clipPath></defs><g fill="#17171b" fill-opacity="1"><g transform="translate(11.308445, 280.546431)"><g><path d="M 175.46875 0 C 190.726562 0 204.15625 -5.546875 215.75 -16.640625 C 226.75 -27.890625 232.332031 -41.351562 232.5 -57.03125 L 232.5 -75.421875 C 232.5 -81.003906 230.5 -85.796875 226.5 -89.796875 C 222.5 -93.796875 217.703125 -95.796875 212.109375 -95.796875 L 125.5625 -95.796875 L 125.5625 -67.28125 L 203.984375 -67.28125 L 203.984375 -57.03125 C 203.984375 -49.363281 201.191406 -42.648438 195.609375 -36.890625 C 189.773438 -31.304688 183.0625 -28.515625 175.46875 -28.515625 L 75.796875 -28.515625 C 67.867188 -28.515625 61.132812 -31.285156 55.59375 -36.828125 C 50.050781 -42.378906 47.28125 -49.113281 47.28125 -57.03125 L 47.28125 -122.4375 C 47.28125 -130.28125 50.050781 -136.992188 55.59375 -142.578125 C 61.132812 -148.160156 67.867188 -150.953125 75.796875 -150.953125 L 175.46875 -150.953125 C 183.3125 -150.953125 190.023438 -148.160156 195.609375 -142.578125 C 201.191406 -136.992188 203.984375 -130.28125 203.984375 -122.4375 L 232.5 -122.4375 C 232.5 -138.113281 226.929688 -151.515625 215.796875 -162.640625 C 204.671875 -173.773438 191.226562 -179.34375 175.46875 -179.34375 L 75.796875 -179.34375 C 60.035156 -179.34375 46.585938 -173.773438 35.453125 -162.640625 C 24.328125 -151.515625 18.765625 -138.113281 18.765625 -122.4375 L 18.765625 -57.03125 C 18.765625 -41.269531 24.328125 -27.820312 35.453125 -16.6875 C 46.585938 -5.5625 60.035156 0 75.796875 0 Z M 175.46875 0 "></path></g></g></g><g clip-path="url(#ee3628981c)"><g clip-path="url(#201c7f8919)"><g transform="matrix(1, 0, 0, 1, 310, 144)"><g clip-path="url(#755611685e)"><g clip-path="url(#b053b42ad7)"><g clip-path="url(#79480d45ae)"><path fill="#17171b" d="M 0.277344 0.25 L 40.828125 0.25 L 40.828125 40.488281 L 0.277344 40.488281 Z M 0.277344 0.25 " fill-opacity="1" fill-rule="nonzero"></path></g></g></g></g></g></g><g clip-path="url(#78d925526f)"><g clip-path="url(#aa115943a7)"><path stroke-linecap="butt" transform="matrix(0.75, 0, 0, 0.75, 310.277211, 144.25146)" fill="none" stroke-linejoin="miter" d="M 8.005386 -0.00194684 L 46.088724 -0.00194684 C 48.213724 -0.00194684 50.244975 0.841803 51.744975 2.341803 C 53.244975 3.841804 54.088725 5.878262 54.088725 7.998054 L 54.088725 45.643892 C 54.088725 47.763684 53.244975 49.800143 51.744975 51.300143 C 50.244975 52.800143 48.213724 53.638685 46.088724 53.638685 L 8.005386 53.638685 C 5.880386 53.638685 3.849135 52.800143 2.349135 51.300143 C 0.849135 49.800143 0.0053849 47.763684 0.0053849 45.643892 L 0.0053849 7.998054 C 0.0053849 5.878262 0.849135 3.841804 2.349135 2.341803 C 3.849135 0.841803 5.880386 -0.00194684 8.005386 -0.00194684 Z M 8.005386 -0.00194684 " stroke="#17171b" stroke-width="3" stroke-opacity="1" stroke-miterlimit="4"></path></g></g><g clip-path="url(#d60f4abd2d)"><g clip-path="url(#9f22d77527)"><g transform="matrix(1, 0, 0, 1, 310, 95)"><g clip-path="url(#bdcd937478)"><g clip-path="url(#bf194a5fd1)"><g clip-path="url(#aada9001e0)"><path fill="#17171b" d="M 0.277344 0.730469 L 40.828125 0.730469 L 40.828125 40.964844 L 0.277344 40.964844 Z M 0.277344 0.730469 " fill-opacity="1" fill-rule="nonzero"></path></g></g></g></g></g></g><g clip-path="url(#1e9a34b13a)"><g clip-path="url(#3093652af0)"><path stroke-linecap="butt" transform="matrix(0.75, 0, 0, 0.75, 310.277211, 95.728683)" fill="none" stroke-linejoin="miter" d="M 8.005386 0.00238058 L 46.088724 0.00238058 C 48.213724 0.00238058 50.244975 0.840922 51.744975 2.340923 C 53.244975 3.840923 54.088725 5.877381 54.088725 7.997173 L 54.088725 45.643011 C 54.088725 47.762803 53.244975 49.799262 51.744975 51.299262 C 50.244975 52.799262 48.213724 53.643013 46.088724 53.643013 L 8.005386 53.643013 C 5.880386 53.643013 3.849135 52.799262 2.349135 51.299262 C 0.849135 49.799262 0.0053849 47.762803 0.0053849 45.643011 L 0.0053849 7.997173 C 0.0053849 5.877381 0.849135 3.840923 2.349135 2.340923 C 3.849135 0.840922 5.880386 0.00238058 8.005386 0.00238058 Z M 8.005386 0.00238058 " stroke="#17171b" stroke-width="3" stroke-opacity="1" stroke-miterlimit="4"></path></g></g><g clip-path="url(#2c26ff1403)"><g clip-path="url(#add4d3ebc9)"><g transform="matrix(1, 0, 0, 1, 262, 95)"><g clip-path="url(#824b06e71f)"><g clip-path="url(#2f9cb2d2bd)"><g clip-path="url(#463523078a)"><path fill="#17171b" d="M 0.585938 0.730469 L 41.140625 0.730469 L 41.140625 40.964844 L 0.585938 40.964844 Z M 0.585938 0.730469 " fill-opacity="1" fill-rule="nonzero"></path></g></g></g></g></g></g><g clip-path="url(#c38f5158e2)"><g clip-path="url(#3cabb496e3)"><path stroke-linecap="butt" transform="matrix(0.75, 0, 0, 0.75, 262.587496, 95.728683)" fill="none" stroke-linejoin="miter" d="M 8.003131 0.00238058 L 46.091678 0.00238058 C 48.21147 0.00238058 50.247928 0.840922 51.747929 2.340923 C 53.247929 3.840923 54.091679 5.877381 54.091679 7.997173 L 54.091679 45.643011 C 54.091679 47.762803 53.247929 49.799262 51.747929 51.299262 C 50.247928 52.799262 48.21147 53.643013 46.091678 53.643013 L 8.003131 53.643013 C 5.883339 53.643013 3.846881 52.799262 2.346881 51.299262 C 0.84688 49.799262 0.00313026 47.762803 0.00313026 45.643011 L 0.00313026 7.997173 C 0.00313026 5.877381 0.84688 3.840923 2.346881 2.340923 C 3.846881 0.840922 5.883339 0.00238058 8.003131 0.00238058 Z M 8.003131 0.00238058 " stroke="#17171b" stroke-width="3" stroke-opacity="1" stroke-miterlimit="4"></path></g></g></svg>