<svg xmlns="http://www.w3.org/2000/svg" xmlns:xlink="http://www.w3.org/1999/xlink" width="500" zoomAndPan="magnify" viewBox="0 0 375 374.999991" height="500" preserveAspectRatio="xMidYMid meet" version="1.0"><defs><g></g><clipPath id="1888de9859"><path d="M 6.839844 6.84375 L 368 6.84375 L 368 367.191406 L 6.839844 367.191406 Z M 6.839844 6.84375 " clip-rule="nonzero"></path></clipPath><clipPath id="b9ca6e04b8"><path d="M 21.839844 6.84375 L 352.195312 6.84375 C 356.171875 6.84375 359.988281 8.425781 362.800781 11.238281 C 365.613281 14.050781 367.195312 17.867188 367.195312 21.84375 L 367.195312 352.191406 C 367.195312 356.167969 365.613281 359.984375 362.800781 362.796875 C 359.988281 365.609375 356.171875 367.191406 352.195312 367.191406 L 21.839844 367.191406 C 17.859375 367.191406 14.046875 365.609375 11.230469 362.796875 C 8.417969 359.984375 6.839844 356.167969 6.839844 352.191406 L 6.839844 21.84375 C 6.839844 17.867188 8.417969 14.050781 11.230469 11.238281 C 14.046875 8.425781 17.859375 6.84375 21.839844 6.84375 Z M 21.839844 6.84375 " clip-rule="nonzero"></path></clipPath><clipPath id="4feec2f2b8"><path d="M 0.839844 0.84375 L 361.199219 0.84375 L 361.199219 361.191406 L 0.839844 361.191406 Z M 0.839844 0.84375 " clip-rule="nonzero"></path></clipPath><clipPath id="406b2cdab0"><path d="M 15.839844 0.84375 L 346.195312 0.84375 C 350.171875 0.84375 353.988281 2.425781 356.800781 5.238281 C 359.613281 8.050781 361.195312 11.867188 361.195312 15.84375 L 361.195312 346.191406 C 361.195312 350.167969 359.613281 353.984375 356.800781 356.796875 C 353.988281 359.609375 350.171875 361.191406 346.195312 361.191406 L 15.839844 361.191406 C 11.859375 361.191406 8.046875 359.609375 5.230469 356.796875 C 2.417969 353.984375 0.839844 350.167969 0.839844 346.191406 L 0.839844 15.84375 C 0.839844 11.867188 2.417969 8.050781 5.230469 5.238281 C 8.046875 2.425781 11.859375 0.84375 15.839844 0.84375 Z M 15.839844 0.84375 " clip-rule="nonzero"></path></clipPath><clipPath id="4801447138"><rect x="0" width="362" y="0" height="362"></rect></clipPath><clipPath id="865c14ef6f"><rect x="0" width="248" y="0" height="263"></rect></clipPath><clipPath id="b3e8bcdfb1"><path d="M 305.308594 140.296875 L 345 140.296875 L 345 179.660156 L 305.308594 179.660156 Z M 305.308594 140.296875 " clip-rule="nonzero"></path></clipPath><clipPath id="e50eb3d8ee"><path d="M 311.308594 140.296875 L 339 140.296875 C 342.3125 140.296875 345 142.984375 345 146.296875 L 345 173.660156 C 345 176.972656 342.3125 179.660156 339 179.660156 L 311.308594 179.660156 C 307.996094 179.660156 305.308594 176.972656 305.308594 173.660156 L 305.308594 146.296875 C 305.308594 142.984375 307.996094 140.296875 311.308594 140.296875 Z M 311.308594 140.296875 " clip-rule="nonzero"></path></clipPath><clipPath id="72ccb9b207"><path d="M 0.308594 0.296875 L 40 0.296875 L 40 39.660156 L 0.308594 39.660156 Z M 0.308594 0.296875 " clip-rule="nonzero"></path></clipPath><clipPath id="1880b1dcce"><path d="M 6.308594 0.296875 L 34 0.296875 C 37.3125 0.296875 40 2.984375 40 6.296875 L 40 33.660156 C 40 36.972656 37.3125 39.660156 34 39.660156 L 6.308594 39.660156 C 2.996094 39.660156 0.308594 36.972656 0.308594 33.660156 L 0.308594 6.296875 C 0.308594 2.984375 2.996094 0.296875 6.308594 0.296875 Z M 6.308594 0.296875 " clip-rule="nonzero"></path></clipPath><clipPath id="1af3c775fa"><rect x="0" width="40" y="0" height="40"></rect></clipPath><clipPath id="0e83a4ecd7"><path d="M 305.308594 140.300781 L 345 140.300781 L 345 179.296875 L 305.308594 179.296875 Z M 305.308594 140.300781 " clip-rule="nonzero"></path></clipPath><clipPath id="6c0d3f57f0"><path d="M 311.304688 140.300781 L 338.988281 140.300781 C 342.300781 140.300781 344.988281 142.988281 344.988281 146.300781 L 344.988281 173.65625 C 344.988281 176.96875 342.300781 179.65625 338.988281 179.65625 L 311.304688 179.65625 C 307.992188 179.65625 305.308594 176.96875 305.308594 173.65625 L 305.308594 146.300781 C 305.308594 142.988281 307.992188 140.300781 311.304688 140.300781 Z M 311.304688 140.300781 " clip-rule="nonzero"></path></clipPath><clipPath id="1c1cbd7a3d"><path d="M 305.308594 92.824219 L 345 92.824219 L 345 132.191406 L 305.308594 132.191406 Z M 305.308594 92.824219 " clip-rule="nonzero"></path></clipPath><clipPath id="0f5a34011c"><path d="M 311.308594 92.824219 L 339 92.824219 C 342.3125 92.824219 345 95.511719 345 98.824219 L 345 126.191406 C 345 129.503906 342.3125 132.191406 339 132.191406 L 311.308594 132.191406 C 307.996094 132.191406 305.308594 129.503906 305.308594 126.191406 L 305.308594 98.824219 C 305.308594 95.511719 307.996094 92.824219 311.308594 92.824219 Z M 311.308594 92.824219 " clip-rule="nonzero"></path></clipPath><clipPath id="dc97018c55"><path d="M 0.308594 0.824219 L 40 0.824219 L 40 40.191406 L 0.308594 40.191406 Z M 0.308594 0.824219 " clip-rule="nonzero"></path></clipPath><clipPath id="11e78003ae"><path d="M 6.308594 0.824219 L 34 0.824219 C 37.3125 0.824219 40 3.511719 40 6.824219 L 40 34.191406 C 40 37.503906 37.3125 40.191406 34 40.191406 L 6.308594 40.191406 C 2.996094 40.191406 0.308594 37.503906 0.308594 34.191406 L 0.308594 6.824219 C 0.308594 3.511719 2.996094 0.824219 6.308594 0.824219 Z M 6.308594 0.824219 " clip-rule="nonzero"></path></clipPath><clipPath id="a76ae1202d"><rect x="0" width="40" y="0" height="41"></rect></clipPath><clipPath id="17e0c47e51"><path d="M 305.308594 92.832031 L 345 92.832031 L 345 131.824219 L 305.308594 131.824219 Z M 305.308594 92.832031 " clip-rule="nonzero"></path></clipPath><clipPath id="30df9a585d"><path d="M 311.304688 92.832031 L 338.988281 92.832031 C 342.300781 92.832031 344.988281 95.515625 344.988281 98.828125 L 344.988281 126.1875 C 344.988281 129.5 342.300781 132.183594 338.988281 132.183594 L 311.304688 132.183594 C 307.992188 132.183594 305.308594 129.5 305.308594 126.1875 L 305.308594 98.828125 C 305.308594 95.515625 307.992188 92.832031 311.304688 92.832031 Z M 311.304688 92.832031 " clip-rule="nonzero"></path></clipPath><clipPath id="be5190d394"><path d="M 258.652344 92.824219 L 298.476562 92.824219 L 298.476562 132.191406 L 258.652344 132.191406 Z M 258.652344 92.824219 " clip-rule="nonzero"></path></clipPath><clipPath id="ae5cb1fbc6"><path d="M 264.652344 92.824219 L 292.34375 92.824219 C 295.65625 92.824219 298.34375 95.511719 298.34375 98.824219 L 298.34375 126.191406 C 298.34375 129.503906 295.65625 132.191406 292.34375 132.191406 L 264.652344 132.191406 C 261.339844 132.191406 258.652344 129.503906 258.652344 126.191406 L 258.652344 98.824219 C 258.652344 95.511719 261.339844 92.824219 264.652344 92.824219 Z M 264.652344 92.824219 " clip-rule="nonzero"></path></clipPath><clipPath id="9d18b8a296"><path d="M 0.652344 0.824219 L 40.476562 0.824219 L 40.476562 40.191406 L 0.652344 40.191406 Z M 0.652344 0.824219 " clip-rule="nonzero"></path></clipPath><clipPath id="d101435237"><path d="M 6.652344 0.824219 L 34.34375 0.824219 C 37.65625 0.824219 40.34375 3.511719 40.34375 6.824219 L 40.34375 34.191406 C 40.34375 37.503906 37.65625 40.191406 34.34375 40.191406 L 6.652344 40.191406 C 3.339844 40.191406 0.652344 37.503906 0.652344 34.191406 L 0.652344 6.824219 C 0.652344 3.511719 3.339844 0.824219 6.652344 0.824219 Z M 6.652344 0.824219 " clip-rule="nonzero"></path></clipPath><clipPath id="1b51a191d3"><rect x="0" width="41" y="0" height="41"></rect></clipPath><clipPath id="7c5e512f2e"><path d="M 258.652344 92.832031 L 298.402344 92.832031 L 298.402344 131.824219 L 258.652344 131.824219 Z M 258.652344 92.832031 " clip-rule="nonzero"></path></clipPath><clipPath id="63abefb6cd"><path d="M 264.652344 92.832031 L 292.335938 92.832031 C 295.648438 92.832031 298.332031 95.515625 298.332031 98.828125 L 298.332031 126.1875 C 298.332031 129.5 295.648438 132.183594 292.335938 132.183594 L 264.652344 132.183594 C 261.339844 132.183594 258.652344 129.5 258.652344 126.1875 L 258.652344 98.828125 C 258.652344 95.515625 261.339844 92.832031 264.652344 92.832031 Z M 264.652344 92.832031 " clip-rule="nonzero"></path></clipPath></defs><rect x="-37.5" width="450" fill="#ffffff" y="-37.499999" height="449.999989" fill-opacity="1"></rect><rect x="-37.5" width="450" fill="#ffffff" y="-37.499999" height="449.999989" fill-opacity="1"></rect><g clip-path="url(#1888de9859)"><g clip-path="url(#b9ca6e04b8)"><g transform="matrix(1, 0, 0, 1, 6, 6)"><g clip-path="url(#4801447138)"><g clip-path="url(#4feec2f2b8)"><g clip-path="url(#406b2cdab0)"><path fill="#e07400" d="M 0.839844 0.84375 L 361.1875 0.84375 L 361.1875 361.191406 L 0.839844 361.191406 Z M 0.839844 0.84375 " fill-opacity="1" fill-rule="nonzero"></path></g></g></g></g></g></g><g transform="matrix(1, 0, 0, 1, 12, 63)"><g clip-path="url(#865c14ef6f)"><g fill="#4f186d" fill-opacity="1"><g transform="translate(0.823442, 210.635265)"><g><path d="M 171.671875 0 C 186.597656 0 199.734375 -5.425781 211.078125 -16.28125 C 221.835938 -27.289062 227.300781 -40.460938 227.46875 -55.796875 L 227.46875 -73.78125 C 227.46875 -79.25 225.507812 -83.941406 221.59375 -87.859375 C 217.675781 -91.773438 212.984375 -93.734375 207.515625 -93.734375 L 122.84375 -93.734375 L 122.84375 -65.828125 L 199.5625 -65.828125 L 199.5625 -55.796875 C 199.5625 -48.296875 196.832031 -41.726562 191.375 -36.09375 C 185.664062 -30.625 179.097656 -27.890625 171.671875 -27.890625 L 74.15625 -27.890625 C 66.40625 -27.890625 59.816406 -30.601562 54.390625 -36.03125 C 48.960938 -41.457031 46.25 -48.046875 46.25 -55.796875 L 46.25 -119.796875 C 46.25 -127.460938 48.960938 -134.023438 54.390625 -139.484375 C 59.816406 -144.953125 66.40625 -147.6875 74.15625 -147.6875 L 171.671875 -147.6875 C 179.335938 -147.6875 185.898438 -144.953125 191.359375 -139.484375 C 196.828125 -134.023438 199.5625 -127.460938 199.5625 -119.796875 L 227.46875 -119.796875 C 227.46875 -135.128906 222.019531 -148.238281 211.125 -159.125 C 200.238281 -170.019531 187.085938 -175.46875 171.671875 -175.46875 L 74.15625 -175.46875 C 58.738281 -175.46875 45.582031 -170.019531 34.6875 -159.125 C 23.800781 -148.238281 18.359375 -135.128906 18.359375 -119.796875 L 18.359375 -55.796875 C 18.359375 -40.378906 23.800781 -27.222656 34.6875 -16.328125 C 45.582031 -5.441406 58.738281 0 74.15625 0 Z M 171.671875 0 "></path></g></g></g></g></g><g clip-path="url(#b3e8bcdfb1)"><g clip-path="url(#e50eb3d8ee)"><g transform="matrix(1, 0, 0, 1, 305, 140)"><g clip-path="url(#1af3c775fa)"><g clip-path="url(#72ccb9b207)"><g clip-path="url(#1880b1dcce)"><path fill="#4f186d" d="M 0.308594 0.296875 L 39.980469 0.296875 L 39.980469 39.660156 L 0.308594 39.660156 Z M 0.308594 0.296875 " fill-opacity="1" fill-rule="nonzero"></path></g></g></g></g></g></g><g clip-path="url(#0e83a4ecd7)"><g clip-path="url(#6c0d3f57f0)"><path stroke-linecap="butt" transform="matrix(0.75, 0, 0, 0.75, 305.308081, 140.296308)" fill="none" stroke-linejoin="miter" d="M 7.995476 0.00596382 L 44.906936 0.00596382 C 49.323603 0.00596382 52.906937 3.589297 52.906937 8.005964 L 52.906937 44.479925 C 52.906937 48.896592 49.323603 52.479926 44.906936 52.479926 L 7.995476 52.479926 C 3.578809 52.479926 0.000683331 48.896592 0.000683331 44.479925 L 0.000683331 8.005964 C 0.000683331 3.589297 3.578809 0.00596382 7.995476 0.00596382 Z M 7.995476 0.00596382 " stroke="#4f186d" stroke-width="3" stroke-opacity="1" stroke-miterlimit="4"></path></g></g><g clip-path="url(#1c1cbd7a3d)"><g clip-path="url(#0f5a34011c)"><g transform="matrix(1, 0, 0, 1, 305, 92)"><g clip-path="url(#a76ae1202d)"><g clip-path="url(#dc97018c55)"><g clip-path="url(#11e78003ae)"><path fill="#4f186d" d="M 0.308594 0.824219 L 39.980469 0.824219 L 39.980469 40.191406 L 0.308594 40.191406 Z M 0.308594 0.824219 " fill-opacity="1" fill-rule="nonzero"></path></g></g></g></g></g></g><g clip-path="url(#17e0c47e51)"><g clip-path="url(#30df9a585d)"><path stroke-linecap="butt" transform="matrix(0.75, 0, 0, 0.75, 305.308081, 92.825898)" fill="none" stroke-linejoin="miter" d="M 7.995476 0.00817779 L 44.906936 0.00817779 C 49.323603 0.00817779 52.906937 3.586303 52.906937 8.00297 L 52.906937 44.482139 C 52.906937 48.898806 49.323603 52.476931 44.906936 52.476931 L 7.995476 52.476931 C 3.578809 52.476931 0.000683331 48.898806 0.000683331 44.482139 L 0.000683331 8.00297 C 0.000683331 3.586303 3.578809 0.00817779 7.995476 0.00817779 Z M 7.995476 0.00817779 " stroke="#4f186d" stroke-width="3" stroke-opacity="1" stroke-miterlimit="4"></path></g></g><g clip-path="url(#be5190d394)"><g clip-path="url(#ae5cb1fbc6)"><g transform="matrix(1, 0, 0, 1, 258, 92)"><g clip-path="url(#1b51a191d3)"><g clip-path="url(#9d18b8a296)"><g clip-path="url(#d101435237)"><path fill="#4f186d" d="M 0.652344 0.824219 L 40.324219 0.824219 L 40.324219 40.191406 L 0.652344 40.191406 Z M 0.652344 0.824219 " fill-opacity="1" fill-rule="nonzero"></path></g></g></g></g></g></g><g clip-path="url(#7c5e512f2e)"><g clip-path="url(#63abefb6cd)"><path stroke-linecap="butt" transform="matrix(0.75, 0, 0, 0.75, 258.652692, 92.825898)" fill="none" stroke-linejoin="miter" d="M 7.999537 0.00817779 L 44.910998 0.00817779 C 49.327665 0.00817779 52.90579 3.586303 52.90579 8.00297 L 52.90579 44.482139 C 52.90579 48.898806 49.327665 52.476931 44.910998 52.476931 L 7.999537 52.476931 C 3.58287 52.476931 -0.000463687 48.898806 -0.000463687 44.482139 L -0.000463687 8.00297 C -0.000463687 3.586303 3.58287 0.00817779 7.999537 0.00817779 Z M 7.999537 0.00817779 " stroke="#4f186d" stroke-width="3" stroke-opacity="1" stroke-miterlimit="4"></path></g></g></svg>